<svg width="32" height="32" viewBox="0 0 32 32" fill="none" xmlns="http://www.w3.org/2000/svg">
<g clip-path="url(#clip0_5_46)">
<path d="M15.9985 31.756C24.7112 31.756 31.7741 24.6931 31.7741 15.9804C31.7741 7.26779 24.7112 0.204803 15.9985 0.204803C7.28589 0.204803 0.2229 7.26779 0.2229 15.9804C0.2229 24.6931 7.28589 31.756 15.9985 31.756Z" fill="url(#paint0_linear_5_46)"/>
<path d="M21.583 11.7117C22.2599 11.7117 22.8086 11.163 22.8086 10.4861C22.8086 9.80929 22.2599 9.26059 21.583 9.26059C20.9062 9.26059 20.3575 9.80929 20.3575 10.4861C20.3575 11.163 20.9062 11.7117 21.583 11.7117Z" fill="white"/>
<path d="M16.1345 10.8322C13.2958 10.8322 10.9863 13.1417 10.9863 15.9804C10.9863 18.8191 13.2958 21.1286 16.1345 21.1286C18.9732 21.1286 21.2826 18.8191 21.2826 15.9804C21.2826 13.1417 18.9732 10.8322 16.1345 10.8322ZM16.1345 19.2782C14.3161 19.2782 12.8367 17.7989 12.8367 15.9804C12.8367 14.162 14.3161 12.6827 16.1345 12.6827C17.9529 12.6827 19.4322 14.162 19.4322 15.9804C19.4322 17.7989 17.953 19.2782 16.1345 19.2782Z" fill="white"/>
<path d="M20.2215 26.4328H11.8755C8.41306 26.4328 5.59631 23.616 5.59631 20.1536V11.8072C5.59631 8.34478 8.41305 5.52808 11.8755 5.52808H20.2215C23.6839 5.52808 26.501 8.34478 26.501 11.8072V20.1536C26.501 23.616 23.6839 26.4328 20.2215 26.4328ZM11.8755 7.49474C9.49739 7.49474 7.56298 9.42916 7.56298 11.8072V20.1536C7.56298 22.5317 9.49739 24.4661 11.8755 24.4661H20.2215C22.5996 24.4661 24.5343 22.5317 24.5343 20.1536V11.8072C24.5343 9.42916 22.5996 7.49474 20.2215 7.49474H11.8755Z" fill="white"/>
</g>
<defs>
<linearGradient id="paint0_linear_5_46" x1="2.54619" y1="29.4328" x2="36.6389" y2="-4.65994" gradientUnits="userSpaceOnUse">
<stop offset="0.0011" stop-color="#FBE18A"/>
<stop offset="0.2094" stop-color="#FCBB45"/>
<stop offset="0.3765" stop-color="#F75274"/>
<stop offset="0.5238" stop-color="#D53692"/>
<stop offset="0.7394" stop-color="#8F39CE"/>
<stop offset="1" stop-color="#5B4FE9"/>
</linearGradient>
<clipPath id="clip0_5_46">
<rect width="32" height="32" fill="white"/>
</clipPath>
</defs>
</svg>
